<?xml version="1.0" encoding="UTF-8"?>
<svg id="Capa_1" data-name="Capa 1" xmlns="http://www.w3.org/2000/svg" viewBox="0 0 1080 1080">
  <defs>
    <style>
      .cls-1, .cls-2 {
        fill: #fff;
      }

      .cls-3 {
        fill: #c38814;
      }

      .cls-3, .cls-2, .cls-4, .cls-5 {
        fill-rule: evenodd;
      }

      .cls-4 {
        fill: #fab72d;
      }

      .cls-5 {
        fill: #eba327;
      }
    </style>
  </defs>
  <path class="cls-3" d="M992.03,540c0,249.65-202.38,452.03-452.03,452.03S87.97,789.65,87.97,540,290.35,87.97,540,87.97c249.65,0,452.03,202.38,452.03,452.02h0Z"/>
  <path class="cls-5" d="M992.03,540c0,249.65-202.38,452.03-452.03,452.03S87.97,789.65,87.97,540,290.35,87.97,540,87.97c249.65,0,452.03,202.38,452.03,452.02h0Z"/>
  <path class="cls-4" d="M826.22,889.86c-67.04,38.85-144.89,61.1-227.94,61.1-251.45,0-455.28-203.84-455.28-455.29,0-127.49,52.42-242.72,136.86-325.36,73.57-51.86,163.29-82.33,260.14-82.33,249.65,0,452.03,202.38,452.03,452.02,0,141.03-64.6,266.97-165.81,349.86h0Z"/>
  <path class="cls-2" d="M349.57,287.87c-9.77,0-19.35-4.69-25.24-13.4-9.4-13.92-5.75-32.85,8.17-42.26,61.47-41.54,133.22-63.5,207.5-63.5,16.81,0,30.43,13.62,30.43,30.43s-13.62,30.43-30.43,30.43c-62.07,0-122.05,18.36-173.41,53.08-5.22,3.53-11.16,5.23-17.02,5.23h0Z"/>
  <g>
    <path class="cls-1" d="M294.83,621.47c5.25,0,9.51,4.26,9.51,9.51v16.24c0,24.46,6.07,35.82,22.38,35.82s20.35-16.84,20.35-34.39c0-35.09-6.6-45.26-44.57-77.02-41.88-35.48-63.42-56.49-63.42-111.27s17.59-102.07,88.03-102.07c74.79,0,85.83,51.01,85.83,93.57v11.89c0,5.25-4.26,9.51-9.51,9.51h-48.5c-5.25,0-9.51-4.26-9.51-9.51v-12.76c0-22.56-3.71-33.72-17.85-33.72-13.2,0-17.46,11.36-17.46,32.41,0,22.4,4.07,33.45,34.82,57.44,54.69,42.97,74.31,67.1,74.31,128.34s-19.89,106.19-93.77,106.19-91.18-42.79-91.18-97.9v-12.78c0-5.25,4.26-9.51,9.51-9.51h51.02Z"/>
    <path class="cls-1" d="M631.22,463.72v172.51c0,73.78-34.73,105.43-99.73,105.43s-93.41-32.43-93.41-104.71v-175.16c0-71.8,39.46-103.14,96.72-103.14s96.42,30.82,96.42,105.07ZM510.41,455.67v190.07c0,22.97,7.88,34.94,23.86,34.94s24.22-10.86,24.22-35.31v-190.27c0-23.23-6.43-35.11-24.42-35.11-15.23,0-23.66,11-23.66,35.67Z"/>
    <path class="cls-1" d="M713.88,736.09c-5.25,0-9.51-4.26-9.51-9.51v-109.56c0-6-.95-12.7-2.62-19.25l-61.97-221.46c-1.7-6.07,2.86-12.08,9.16-12.08h57.47c4.58,0,8.51,3.24,9.35,7.74,9.67,51.73,20.48,109.73,24.85,154.35h2.32c5.75-42.38,16.84-101.53,26.25-154.27.81-4.54,4.75-7.82,9.36-7.82h53.25c6.3,0,10.86,6.01,9.16,12.07l-63.37,227.12c-.06.21-.11.42-.15.63-.92,4.4-1.63,8.11-1.63,15.7v106.82c0,5.25-4.26,9.51-9.51,9.51h-52.39Z"/>
  </g>
</svg>