<?xml version="1.0" encoding="UTF-8"?>
<svg id="Capa_1" data-name="Capa 1" xmlns="http://www.w3.org/2000/svg" viewBox="0 0 1080 528.12">
  <defs>
    <style>
      .cls-1, .cls-2 {
        fill: #fff;
      }

      .cls-3 {
        fill: #c38814;
      }

      .cls-3, .cls-2, .cls-4, .cls-5, .cls-6 {
        fill-rule: evenodd;
      }

      .cls-4 {
        fill: #474337;
      }

      .cls-5 {
        fill: #fab72d;
      }

      .cls-6 {
        fill: #eba327;
      }

      .cls-7 {
        fill: #007d37;
      }

      .cls-8 {
        fill: #83b54b;
      }
    </style>
  </defs>
  <g>
    <path class="cls-4" d="M671.48,386.75c-1.6,0-2.77.47-3.51,1.41-.74.94-1.11,2.44-1.11,4.5v.6c0,2.31.36,3.98,1.1,5.02.73,1.04,1.93,1.56,3.59,1.56,1.4,0,2.48-.57,3.23-1.72.76-1.15,1.13-2.77,1.13-4.9s-.38-3.74-1.12-4.83c-.75-1.09-1.85-1.64-3.31-1.64h0ZM672.46,403.13c-2.4,0-4.27-.87-5.6-2.59h-.24c.16,1.6.24,2.57.24,2.92v7.78h-4.03v-27.43h3.26c.1.35.28,1.2.57,2.54h.2c1.26-1.92,3.15-2.88,5.67-2.88,2.37,0,4.21.86,5.53,2.58,1.33,1.71,1.99,4.13,1.99,7.22s-.68,5.52-2.02,7.26c-1.35,1.74-3.2,2.61-5.57,2.61h0Z"/>
    <path class="cls-4" d="M695.14,383.46c.81,0,1.48.06,2.01.17l-.4,3.76c-.57-.13-1.17-.2-1.79-.2-1.61,0-2.92.52-3.92,1.58-1,1.05-1.5,2.42-1.5,4.1v9.92h-4.03v-18.98h3.16l.53,3.35h.21c.63-1.14,1.45-2.04,2.46-2.7,1.01-.66,2.1-1,3.27-1h0Z"/>
    <path class="cls-4" d="M704.33,393.26c0,4.38,1.62,6.58,4.86,6.58s4.81-2.2,4.81-6.58-1.61-6.51-4.84-6.51c-1.69,0-2.92.56-3.68,1.68-.76,1.12-1.15,2.73-1.15,4.82h0ZM718.15,393.26c0,3.1-.8,5.52-2.39,7.26-1.59,1.74-3.8,2.61-6.64,2.61-1.77,0-3.34-.4-4.7-1.21-1.36-.8-2.41-1.95-3.14-3.45-.74-1.5-1.1-3.24-1.1-5.22,0-3.08.79-5.48,2.37-7.21,1.58-1.73,3.8-2.59,6.67-2.59s4.92.88,6.52,2.66c1.6,1.77,2.4,4.15,2.4,7.15h0Z"/>
    <path class="cls-4" d="M726.35,389.95c0,1.19.3,2.11.92,2.74.61.64,1.49.96,2.64.96,2.34,0,3.5-1.25,3.5-3.74,0-1.24-.28-2.19-.86-2.86-.58-.67-1.45-1-2.63-1s-2.05.33-2.65.99c-.6.66-.9,1.63-.9,2.9h0ZM724.62,405.74c0,.87.39,1.54,1.17,2.01.79.47,1.88.71,3.3.71,2.2,0,3.84-.32,4.91-.95,1.08-.63,1.62-1.46,1.62-2.5,0-.83-.3-1.41-.89-1.76-.59-.35-1.69-.52-3.29-.52h-3.05c-1.16,0-2.07.27-2.76.82-.68.54-1.02,1.28-1.02,2.2h0ZM739.53,383.8v2.21l-3.25.6c.3.4.54.89.74,1.48.2.58.29,1.2.29,1.86,0,1.95-.68,3.49-2.03,4.61-1.35,1.12-3.21,1.69-5.58,1.69-.6,0-1.15-.05-1.64-.14-.87.54-1.3,1.17-1.3,1.89,0,.44.2.76.6.98.41.22,1.15.33,2.24.33h3.31c2.1,0,3.68.45,4.77,1.34,1.09.89,1.63,2.18,1.63,3.86,0,2.15-.89,3.81-2.66,4.98-1.77,1.17-4.33,1.75-7.69,1.75-2.59,0-4.56-.46-5.92-1.37-1.36-.92-2.04-2.22-2.04-3.91,0-1.17.37-2.15,1.11-2.95.74-.8,1.78-1.34,3.1-1.65-.54-.23-.98-.6-1.33-1.11-.35-.51-.53-1.04-.53-1.61,0-.71.2-1.31.6-1.8.4-.49,1-.98,1.78-1.46-.98-.42-1.78-1.11-2.39-2.07-.61-.96-.92-2.07-.92-3.35,0-2.06.65-3.66,1.95-4.79,1.3-1.13,3.15-1.7,5.55-1.7.54,0,1.1.04,1.69.11.59.08,1.03.16,1.33.23h6.58Z"/>
    <path class="cls-4" d="M753.46,383.46c.81,0,1.48.06,2.01.17l-.4,3.76c-.57-.13-1.16-.2-1.79-.2-1.61,0-2.91.52-3.92,1.58-1,1.05-1.5,2.42-1.5,4.1v9.92h-4.04v-18.98h3.16l.53,3.35h.21c.63-1.14,1.45-2.04,2.46-2.7,1.02-.66,2.1-1,3.27-1h0Z"/>
    <path class="cls-4" d="M765.31,400.04c1.46,0,2.64-.41,3.53-1.23.89-.82,1.33-1.97,1.33-3.44v-1.65l-2.44.1c-1.9.07-3.28.39-4.14.95-.86.57-1.3,1.43-1.3,2.6,0,.85.25,1.5.76,1.96.5.46,1.26.7,2.26.7h0ZM771.32,402.78l-.81-2.64h-.13c-.92,1.16-1.84,1.94-2.77,2.36-.93.42-2.12.63-3.57.63-1.87,0-3.32-.5-4.37-1.51-1.05-1.01-1.57-2.43-1.57-4.28,0-1.96.73-3.43,2.18-4.43,1.46-.99,3.67-1.54,6.65-1.63l3.28-.1v-1.01c0-1.21-.28-2.12-.85-2.72-.57-.6-1.44-.9-2.64-.9-.97,0-1.9.14-2.8.43-.89.29-1.75.63-2.58,1.02l-1.3-2.88c1.03-.54,2.15-.95,3.38-1.23,1.23-.28,2.38-.42,3.47-.42,2.41,0,4.24.53,5.46,1.58,1.23,1.05,1.84,2.71,1.84,4.96v12.78s-2.88,0-2.88,0h0Z"/>
    <path class="cls-4" d="M796.46,402.78h-4.05v-11.71c0-1.45-.27-2.53-.82-3.25-.55-.71-1.41-1.07-2.57-1.07-1.56,0-2.7.51-3.42,1.52-.73,1.02-1.09,2.7-1.09,5.06v9.45h-4.04v-18.98h3.16l.56,2.49h.21c.53-.9,1.29-1.6,2.29-2.1,1-.49,2.1-.74,3.3-.74,2.92,0,4.85,1,5.8,2.99h.27c.56-.94,1.35-1.67,2.37-2.2,1.02-.53,2.19-.79,3.51-.79,2.26,0,3.91.57,4.95,1.72,1.03,1.14,1.55,2.89,1.55,5.23v12.38h-4.03v-11.71c0-1.45-.28-2.53-.84-3.25-.55-.71-1.41-1.07-2.58-1.07-1.57,0-2.71.49-3.44,1.47-.72.97-1.09,2.48-1.09,4.5v10.06h0Z"/>
    <path class="cls-4" d="M493.25,392.27l-2.36-6.83c-.17-.46-.41-1.18-.71-2.16-.3-.98-.51-1.71-.63-2.17-.31,1.41-.76,2.95-1.36,4.62l-2.26,6.54h7.32ZM496.83,402.77l-2.51-6.97h-9.59l-2.46,6.97h-4.33l9.39-25.19h4.46l9.39,25.19h-4.36Z"/>
  </g>
  <polygon class="cls-4" points="514.84 254.49 481.33 254.49 481.33 196.31 514.84 196.31 514.84 206.41 493.67 206.41 493.67 219.19 513.37 219.19 513.37 229.3 493.67 229.3 493.67 244.31 514.84 244.31 514.84 254.49 514.84 254.49"/>
  <polygon class="cls-4" points="578.1 254.49 564.01 254.49 550.48 232.49 536.95 254.49 523.74 254.49 543.04 224.49 524.97 196.31 538.58 196.31 551.12 217.25 563.42 196.31 576.71 196.31 558.44 225.16 578.1 254.49 578.1 254.49"/>
  <path class="cls-4" d="M614.21,205.74c-4.64,0-8.24,1.74-10.78,5.23-2.54,3.49-3.82,8.35-3.82,14.59,0,12.97,4.87,19.47,14.61,19.47,4.09,0,9.04-1.02,14.85-3.07v10.35c-4.78,1.99-10.11,2.99-16,2.99-8.46,0-14.94-2.57-19.43-7.7-4.48-5.13-6.72-12.5-6.72-22.11,0-6.05,1.1-11.35,3.3-15.9,2.21-4.55,5.37-8.04,9.49-10.47,4.13-2.43,8.96-3.64,14.5-3.64s11.33,1.36,17.04,4.1l-3.98,10.03c-2.18-1.03-4.37-1.94-6.57-2.7-2.2-.77-4.36-1.16-6.49-1.16h0Z"/>
  <polygon class="cls-4" points="679.02 254.49 645.51 254.49 645.51 196.31 679.02 196.31 679.02 206.41 657.85 206.41 657.85 219.19 677.55 219.19 677.55 229.3 657.85 229.3 657.85 244.31 679.02 244.31 679.02 254.49 679.02 254.49"/>
  <polygon class="cls-4" points="695.23 254.49 695.23 196.31 707.57 196.31 707.57 244.31 731.17 244.31 731.17 254.49 695.23 254.49 695.23 254.49"/>
  <polygon class="cls-4" points="745.36 254.49 745.36 196.31 757.69 196.31 757.69 244.31 781.29 244.31 781.29 254.49 745.36 254.49 745.36 254.49"/>
  <polygon class="cls-4" points="828.99 254.49 795.48 254.49 795.48 196.31 828.99 196.31 828.99 206.41 807.82 206.41 807.82 219.19 827.52 219.19 827.52 229.3 807.82 229.3 807.82 244.31 828.99 244.31 828.99 254.49 828.99 254.49"/>
  <path class="cls-4" d="M896.82,254.49h-15.68l-25.31-44.02h-.36c.51,7.77.76,13.32.76,16.63v27.38s-11.02,0-11.02,0v-58.19h15.56l25.27,43.58h.28c-.4-7.56-.6-12.91-.6-16.04v-27.54h11.11v58.19h0Z"/>
  <path class="cls-4" d="M940.26,205.74c-4.64,0-8.24,1.74-10.79,5.23-2.54,3.49-3.82,8.35-3.82,14.59,0,12.97,4.87,19.47,14.61,19.47,4.09,0,9.04-1.02,14.85-3.07v10.35c-4.78,1.99-10.11,2.99-16,2.99-8.46,0-14.94-2.57-19.42-7.7-4.48-5.13-6.72-12.5-6.72-22.11,0-6.05,1.1-11.35,3.3-15.9,2.21-4.55,5.37-8.04,9.5-10.47,4.13-2.43,8.96-3.64,14.5-3.64s11.33,1.36,17.04,4.1l-3.98,10.03c-2.18-1.03-4.37-1.94-6.57-2.7-2.2-.77-4.36-1.16-6.49-1.16h0Z"/>
  <polygon class="cls-4" points="1005.07 254.49 971.56 254.49 971.56 196.31 1005.07 196.31 1005.07 206.41 983.89 206.41 983.89 219.19 1003.6 219.19 1003.6 229.3 983.89 229.3 983.89 244.31 1005.07 244.31 1005.07 254.49 1005.07 254.49"/>
  <path class="cls-4" d="M500.34,288.24c-4.64,0-8.24,1.74-10.79,5.23-2.54,3.49-3.82,8.35-3.82,14.59,0,12.98,4.87,19.46,14.61,19.46,4.09,0,9.04-1.02,14.85-3.07v10.35c-4.78,1.99-10.11,2.99-16,2.99-8.47,0-14.94-2.57-19.43-7.7-4.48-5.13-6.72-12.5-6.72-22.11,0-6.05,1.1-11.35,3.3-15.9,2.2-4.55,5.37-8.04,9.49-10.47,4.13-2.43,8.96-3.64,14.51-3.64s11.33,1.37,17.04,4.1l-3.98,10.03c-2.18-1.03-4.37-1.94-6.57-2.7-2.2-.77-4.36-1.15-6.49-1.15h0Z"/>
  <polygon class="cls-4" points="565.15 336.99 531.65 336.99 531.65 278.8 565.15 278.8 565.15 288.91 543.98 288.91 543.98 301.69 563.68 301.69 563.68 311.8 543.98 311.8 543.98 326.8 565.15 326.8 565.15 336.99 565.15 336.99"/>
  <path class="cls-4" d="M632.99,336.99h-15.68l-25.31-44.02h-.36c.5,7.77.76,13.32.76,16.64v27.38h-11.02v-58.19h15.56l25.27,43.58h.28c-.4-7.56-.6-12.91-.6-16.04v-27.54h11.11v58.19h0Z"/>
  <polygon class="cls-4" points="674.16 336.99 661.82 336.99 661.82 289.07 646.02 289.07 646.02 278.8 689.96 278.8 689.96 289.07 674.16 289.07 674.16 336.99 674.16 336.99"/>
  <polygon class="cls-4" points="736.49 336.99 702.99 336.99 702.99 278.8 736.49 278.8 736.49 288.91 715.32 288.91 715.32 301.69 735.02 301.69 735.02 311.8 715.32 311.8 715.32 326.8 736.49 326.8 736.49 336.99 736.49 336.99"/>
  <path class="cls-4" d="M765.04,304.63h3.98c3.9,0,6.78-.65,8.64-1.95,1.86-1.3,2.78-3.34,2.78-6.13s-.95-4.72-2.85-5.89c-1.9-1.17-4.84-1.75-8.81-1.75h-3.74v15.72h0ZM765.04,314.66v22.33h-12.33v-58.19h16.95c7.91,0,13.76,1.44,17.55,4.32,3.8,2.88,5.69,7.25,5.69,13.12,0,3.42-.94,6.47-2.82,9.14-1.89,2.66-4.55,4.76-8,6.27,8.75,13.08,14.46,21.53,17.11,25.35h-13.69l-13.89-22.33h-6.57Z"/>
  <path class="cls-3" d="M438.59,262.18c0,98.61-79.94,178.54-178.54,178.54s-178.54-79.93-178.54-178.54,79.94-178.54,178.54-178.54c98.6,0,178.54,79.94,178.54,178.54h0Z"/>
  <path class="cls-6" d="M438.59,262.18c0,98.61-79.94,178.54-178.54,178.54s-178.54-79.93-178.54-178.54,79.94-178.54,178.54-178.54c98.6,0,178.54,79.94,178.54,178.54h0Z"/>
  <path class="cls-5" d="M373.1,400.36c-26.48,15.34-57.23,24.13-90.03,24.13-99.32,0-179.83-80.51-179.83-179.83,0-50.36,20.71-95.87,54.06-128.51,29.06-20.48,64.5-32.52,102.75-32.52,98.6,0,178.54,79.94,178.54,178.54,0,55.7-25.51,105.45-65.49,138.19h0Z"/>
  <path class="cls-2" d="M184.83,162.59c-3.86,0-7.64-1.85-9.97-5.29-3.71-5.5-2.27-12.97,3.23-16.69,24.28-16.41,52.62-25.08,81.96-25.08,6.64,0,12.02,5.38,12.02,12.02s-5.38,12.02-12.02,12.02c-24.52,0-48.21,7.25-68.49,20.96-2.06,1.39-4.41,2.06-6.72,2.06h0Z"/>
  <g>
    <g>
      <path class="cls-8" d="M522.28,396.89c0-.63.51-1.14,1.14-1.14h31.5c2.5,0,3.84-.76,3.84-2.64,0-1.99-1.52-2.6-3.84-2.6h-31.5c-.63,0-1.14-.51-1.14-1.14v-6.06c0-.63.51-1.14,1.14-1.14h30.97c7.6,0,11.36,3.49,11.36,11.08s-3.63,10.81-11.42,10.81h-30.9c-.63,0-1.14-.51-1.14-1.14v-6.01Z"/>
      <path class="cls-8" d="M551.94,372.31c0-.63.51-1.14,1.14-1.14h1.83c2.82,0,4.13-.7,4.13-2.58s-1.94-2.35-3.96-2.35c-4.05,0-5.22.76-8.88,5.14-4.09,4.83-6.51,7.31-12.83,7.31s-11.77-2.03-11.77-10.15c0-8.62,5.88-9.89,10.79-9.89h1.32c.63,0,1.14.51,1.14,1.14v5.5c0,.63-.51,1.14-1.14,1.14h-1.42c-2.6,0-3.89.43-3.89,2.06,0,1.52,1.31,2.01,3.74,2.01,2.58,0,3.86-.47,6.62-4.01,4.95-6.3,7.74-8.57,14.8-8.57s12.24,2.29,12.24,10.81-4.93,10.51-11.29,10.51h-1.43c-.63,0-1.14-.51-1.14-1.14v-5.79Z"/>
    </g>
    <g>
      <path class="cls-7" d="M578.56,389.55c.63,0,1.14.51,1.14,1.14v1.95c0,2.94.73,4.3,2.69,4.3s2.44-2.02,2.44-4.13c0-4.22-.79-5.44-5.35-9.25-5.03-4.26-7.62-6.79-7.62-13.37s2.11-12.26,10.58-12.26c8.99,0,10.31,6.13,10.31,11.24v1.43c0,.63-.51,1.14-1.14,1.14h-5.83c-.63,0-1.14-.51-1.14-1.14v-1.53c0-2.71-.45-4.05-2.14-4.05-1.59,0-2.1,1.36-2.1,3.89,0,2.69.49,4.02,4.18,6.9,6.57,5.16,8.93,8.06,8.93,15.42s-2.39,12.76-11.27,12.76-10.96-5.14-10.96-11.76v-1.53c0-.63.51-1.14,1.14-1.14h6.13Z"/>
      <path class="cls-7" d="M618.98,370.59v20.73c0,8.87-4.17,12.67-11.98,12.67s-11.22-3.9-11.22-12.58v-21.05c0-8.63,4.74-12.39,11.62-12.39s11.59,3.7,11.59,12.62ZM604.46,369.62v22.84c0,2.76.95,4.2,2.87,4.2s2.91-1.3,2.91-4.24v-22.86c0-2.79-.77-4.22-2.93-4.22-1.83,0-2.84,1.32-2.84,4.29Z"/>
      <path class="cls-7" d="M628.91,403.32c-.63,0-1.14-.51-1.14-1.14v-13.16c0-.72-.11-1.53-.31-2.31l-7.45-26.61c-.2-.73.34-1.45,1.1-1.45h6.9c.55,0,1.02.39,1.12.93,1.16,6.22,2.46,13.18,2.99,18.55h.28c.69-5.09,2.02-12.2,3.15-18.54.1-.55.57-.94,1.12-.94h6.4c.76,0,1.3.72,1.1,1.45l-7.61,27.29s-.01.05-.02.08c-.11.53-.2.98-.2,1.89v12.83c0,.63-.51,1.14-1.14,1.14h-6.29Z"/>
    </g>
  </g>
  <g>
    <path class="cls-1" d="M163.21,294.36c2.08,0,3.76,1.68,3.76,3.76v6.41c0,9.66,2.4,14.15,8.84,14.15s8.04-6.65,8.04-13.58c0-13.86-2.61-17.88-17.6-30.42-16.54-14.01-25.05-22.31-25.05-43.95s6.95-40.31,34.77-40.31c29.54,0,33.9,20.15,33.9,36.96v4.7c0,2.08-1.68,3.76-3.76,3.76h-19.16c-2.08,0-3.76-1.68-3.76-3.76v-5.04c0-8.91-1.46-13.32-7.05-13.32-5.21,0-6.9,4.49-6.9,12.8,0,8.85,1.61,13.21,13.75,22.69,21.6,16.97,29.35,26.5,29.35,50.69s-7.86,41.94-37.04,41.94-36.01-16.9-36.01-38.67v-5.05c0-2.08,1.68-3.76,3.76-3.76h20.15Z"/>
    <path class="cls-1" d="M296.08,232.05v68.14c0,29.14-13.72,41.64-39.39,41.64s-36.89-12.81-36.89-41.36v-69.18c0-28.36,15.59-40.74,38.2-40.74s38.08,12.17,38.08,41.5ZM248.36,228.87v75.07c0,9.07,3.11,13.8,9.42,13.8s9.57-4.29,9.57-13.94v-75.15c0-9.17-2.54-13.87-9.64-13.87-6.01,0-9.35,4.34-9.35,14.09Z"/>
    <path class="cls-1" d="M328.73,339.63c-2.08,0-3.76-1.68-3.76-3.76v-43.28c0-2.37-.37-5.01-1.04-7.6l-24.48-87.47c-.67-2.4,1.13-4.77,3.62-4.77h22.7c1.81,0,3.36,1.28,3.69,3.06,3.82,20.43,8.09,43.34,9.82,60.96h.92c2.27-16.74,6.65-40.1,10.37-60.93.32-1.79,1.88-3.09,3.7-3.09h21.03c2.49,0,4.29,2.37,3.62,4.77l-25.03,89.71c-.02.08-.04.17-.06.25-.36,1.74-.65,3.21-.65,6.2v42.19c0,2.08-1.68,3.76-3.76,3.76h-20.69Z"/>
  </g>
</svg>